<?xml version="1.0" encoding="UTF-8" standalone="no"?>
<svg
   xmlns:dc="http://purl.org/dc/elements/1.1/"
   xmlns:cc="http://creativecommons.org/ns#"
   xmlns:rdf="http://www.w3.org/1999/02/22-rdf-syntax-ns#"
   xmlns:svg="http://www.w3.org/2000/svg"
   xmlns="http://www.w3.org/2000/svg"
   xmlns:sodipodi="http://sodipodi.sourceforge.net/DTD/sodipodi-0.dtd"
   xmlns:inkscape="http://www.inkscape.org/namespaces/inkscape"
   width="128"
   height="128"
   viewBox="0 0 128 128"
   id="svg2"
   version="1.1"
   inkscape:version="0.91 r13725"
   sodipodi:docname="icon.svg">
  <metadata
     id="metadata10">
    <rdf:RDF>
      <cc:Work
         rdf:about="">
        <dc:format>image/svg+xml</dc:format>
        <dc:type
           rdf:resource="http://purl.org/dc/dcmitype/StillImage" />
        <dc:title></dc:title>
      </cc:Work>
    </rdf:RDF>
  </metadata>
  <defs
     id="defs8" />
  <sodipodi:namedview
     pagecolor="#ffffff"
     bordercolor="#666666"
     borderopacity="1"
     objecttolerance="10"
     gridtolerance="10"
     guidetolerance="10"
     inkscape:pageopacity="0"
     inkscape:pageshadow="2"
     inkscape:window-width="1563"
     inkscape:window-height="1066"
     id="namedview6"
     showgrid="false"
     inkscape:zoom="3.6875"
     inkscape:cx="88.847458"
     inkscape:cy="41.806756"
     inkscape:window-x="522"
     inkscape:window-y="412"
     inkscape:window-maximized="0"
     inkscape:current-layer="svg2"
     fit-margin-top="0"
     fit-margin-left="0"
     fit-margin-right="0"
     fit-margin-bottom="0"
     borderlayer="false"
     inkscape:showpageshadow="false"
     showborder="true" />
  <path
     inkscape:connector-curvature="0"
     d="M 79.913931,0.01646178 64.396113,46.720998 112.67378,61.733185 128.19161,15.028644 79.913931,0.01646178 Z m 4.094985,7.71459092 36.208244,11.2591463 -5.81918,17.514197 -4.09498,-7.71459 -7.97444,3.961554 8.18997,15.429182 -1.93973,5.838052 -6.03471,-1.876539 -16.379928,-30.858363 -7.974433,3.961554 5.819187,-17.5141933 z"
     id="path4-3" />
  <path
     id="path4"
     style="fill:#d4aa00;stroke:none;stroke-width:0.1;stroke-miterlimit:4;stroke-dasharray:none;stroke-opacity:1"
     d="m 3.050847e-8,37.007047 0,22.612666 93.497148969491519,0 0,-11.306333 -58.435714,0 0,-11.306333 -35.061434969491521,0 z m 0,33.918998 0,50.878415 c 0,3.16576 2.57117316949153,5.65317 5.84357176949153,5.65317 l 81.8100012,0 c 3.272403,0 5.843576,-2.48741 5.843576,-5.65317 l 0,-50.878415 -93.497148969491533,0 z"
     inkscape:connector-curvature="0" />
</svg>
